<svg width="167" height="20" viewBox="0 0 167 20" fill="none" xmlns="http://www.w3.org/2000/svg">
<g clip-path="url(#clip0_449_66)">
<path d="M93.0245 13.6614C92.9125 16.0274 95.3345 17.8615 97.7005 18.0435C100.066 18.2255 102.334 17.2315 104.532 16.3494C106.73 15.4674 109.138 14.6834 111.42 15.2854C114.612 16.1114 117.048 19.4995 120.324 19.2055C123.32 18.9395 125.294 15.6634 128.262 15.1734C131.986 14.5574 135.276 18.5475 139.014 18.0155C142.248 17.5535 144.096 13.9554 147.12 12.7234C150.242 11.4494 153.77 12.9474 157.13 12.7794C161.148 12.5834 164.914 9.71332 166.174 5.87726C166.762 4.08523 164.046 2.6572 162.156 2.5872C160.266 2.5172 158.432 3.13321 156.542 3.13321C151.698 3.13321 147.218 -0.842858 142.472 0.137159C138.384 0.991173 135.094 5.40125 131.006 4.50523C129.396 4.15523 128.094 3.00721 126.61 2.2652C123.236 0.571167 118.826 1.22918 116.11 3.84722C115.046 4.85524 114.206 6.15726 112.89 6.81527C110.79 7.87929 108.298 6.98328 105.974 6.59127C102.796 6.07326 99.4505 6.59127 96.5805 8.04729C94.2985 9.20931 91.1485 11.8834 93.0105 13.6474L93.0245 13.6614Z" fill="#42C1B7"/>
<path d="M165.545 6.43741C158.671 6.71742 151.797 6.98342 144.923 7.26343C142.977 7.34743 141.017 7.41743 139.099 7.78143C137.055 8.15944 135.081 8.85945 133.023 9.12546C129.019 9.61547 124.959 8.41145 120.941 8.80345C118.057 9.08346 115.327 10.1755 112.527 10.8895C109.629 11.6175 106.661 11.9535 103.693 12.2755C96.9732 13.0175 90.2393 13.7455 83.5193 14.4875" stroke="#008E83" stroke-width="1.00801" stroke-linecap="round" stroke-linejoin="round"/>
</g>
<g clip-path="url(#clip1_449_66)">
<path d="M73.2333 13.6614C73.3453 16.0274 70.9233 17.8615 68.5573 18.0435C66.1913 18.2255 63.9233 17.2315 61.7253 16.3494C59.5273 15.4674 57.1194 14.6834 54.8374 15.2854C51.6454 16.1114 49.2094 19.4995 45.9334 19.2055C42.9374 18.9395 40.9634 15.6634 37.9954 15.1734C34.2715 14.5574 30.9815 18.5475 27.2435 18.0155C24.0095 17.5535 22.1615 13.9554 19.1375 12.7234C16.0155 11.4494 12.4876 12.9474 9.12758 12.7794C5.1096 12.5834 1.34361 9.71332 0.0836195 5.87726C-0.504378 4.08523 2.21161 2.6572 4.1016 2.5872C5.99159 2.5172 7.82558 3.13321 9.71558 3.13321C14.5596 3.13321 19.0395 -0.842858 23.7855 0.137159C27.8735 0.991173 31.1635 5.40125 35.2515 4.50523C36.8614 4.15523 38.1634 3.00721 39.6474 2.2652C43.0214 0.571167 47.4314 1.22918 50.1474 3.84722C51.2114 4.85524 52.0514 6.15726 53.3674 6.81527C55.4674 7.87929 57.9594 6.98328 60.2833 6.59127C63.4613 6.07326 66.8073 6.59127 69.6773 8.04729C71.9593 9.20931 75.1093 11.8834 73.2473 13.6474L73.2333 13.6614Z" fill="#42C1B7"/>
<path d="M0.712891 6.43741C7.58686 6.71742 14.4608 6.98342 21.3348 7.26343C23.2808 7.34743 25.2408 7.41743 27.1588 7.78143C29.2028 8.15944 31.1767 8.85945 33.2347 9.12546C37.2387 9.61547 41.2987 8.41145 45.3167 8.80345C48.2007 9.08346 50.9307 10.1755 53.7306 10.8895C56.6286 11.6175 59.5966 11.9535 62.5646 12.2755C69.2846 13.0175 76.0185 13.7455 82.7385 14.4875" stroke="#008E83" stroke-width="1.00801" stroke-linecap="round" stroke-linejoin="round"/>
</g>
<defs>
<clipPath id="clip0_449_66">
<rect width="19.2363" height="83.2576" fill="white" transform="matrix(0 -1 -1 0 166.258 19.2363)"/>
</clipPath>
<clipPath id="clip1_449_66">
<rect width="19.2363" height="83.2576" fill="white" transform="matrix(0 -1 1 0 0 19.2363)"/>
</clipPath>
</defs>
</svg>
