<svg width="139" height="66" viewBox="0 0 139 66" fill="none" xmlns="http://www.w3.org/2000/svg">
<path d="M119.629 28.3623C117.289 28.9772 111.11 29.3188 111.11 29.3188L110.35 32.0972C110.35 32.0972 113.41 31.8012 115.65 32.0517C115.65 32.0517 116.369 31.9833 116.449 32.9626C116.489 33.9647 116.389 35.0123 116.389 35.0123C116.389 35.0123 116.329 35.6271 115.59 35.7866C114.73 35.946 108.93 36.242 108.93 36.242L107.99 39.8403C107.99 39.8403 107.65 40.6601 108.43 40.4324C109.15 40.2047 115.23 38.8838 116.03 39.066C116.869 39.2937 117.829 40.6146 117.549 41.7988C117.229 43.2336 111.15 47.6517 107.47 47.3556C107.47 47.3556 105.53 47.4923 103.91 44.5089C102.351 41.6622 104.45 36.3104 104.45 36.3104C104.45 36.3104 103.51 33.8052 104.21 32.8943C104.21 32.8943 104.61 32.5071 105.81 32.3933L107.31 28.8861C107.31 28.8861 105.61 29 104.61 27.588C103.69 26.2216 103.61 25.6295 104.33 25.2651C105.09 24.8096 112.13 23.3749 116.969 23.5571C116.969 23.5571 118.669 23.3293 120.169 26.6771C120.169 26.6771 120.849 28.0435 119.649 28.3623M101.391 41.8444C100.791 43.5069 99.1308 45.2604 97.131 44.1901C95.0911 43.0969 91.8714 35.6271 91.8714 35.6271C91.8714 35.6271 90.6715 32.8487 90.4315 32.9398C90.4315 32.9398 90.1715 32.3933 90.0315 35.445C89.8315 38.4739 90.0715 44.3723 88.9716 45.306C87.9717 46.2169 86.7718 45.8298 86.0918 44.7594C85.5319 43.6891 85.2919 41.1156 85.6119 36.6292C85.9718 32.1428 86.8718 27.3603 88.0117 25.88C89.2116 24.3769 90.1715 25.47 90.5315 25.88C90.5315 25.88 92.0714 27.4741 94.6712 32.1883L95.1111 33.0537C95.1111 33.0537 97.4709 37.5401 97.7109 37.5174C97.7109 37.5174 97.9109 37.7451 98.0709 37.5629C98.3109 37.4946 98.2309 36.0371 98.2309 36.0371C98.2309 36.0371 97.7909 31.1863 95.5911 22.9877C95.5911 22.9877 95.2711 21.9401 95.4911 20.9381C95.6911 20.0271 96.551 20.4826 96.551 20.4826C96.551 20.4826 99.8708 22.3045 101.491 28.4534C103.091 34.6023 102.011 40.1819 101.411 41.8444M85.1119 26.0622C84.7919 26.6998 84.6519 27.588 83.272 27.8385C83.272 27.8385 69.8731 28.9089 69.2131 29.9793C69.2131 29.9793 68.7731 30.6169 69.4931 30.7763C70.253 30.9585 73.2928 31.414 74.7327 31.5051C76.2926 31.5051 81.5322 31.5506 83.452 34.2379C83.452 34.2379 84.5519 35.5133 84.5119 38.4055C84.4719 41.3661 84.012 42.4137 82.9921 43.4841C81.9321 44.4861 72.8528 49.132 66.9933 42.0266C66.9933 42.0266 64.3135 38.6105 67.9332 36.0143C67.9332 36.0143 70.533 34.1924 77.1925 36.3104C77.1925 36.3104 79.1923 37.1302 79.1123 37.9728C78.9924 38.8838 77.4525 39.7947 75.2126 39.7492C73.0528 39.6809 71.4529 38.4966 71.7729 38.7016C72.0729 38.8155 69.4331 37.2441 68.6132 38.3144C67.8132 39.3165 68.0132 39.9086 68.8131 40.5235C70.813 41.8444 78.6724 41.3661 81.0122 38.3828C81.0122 38.3828 81.9521 37.1758 80.5322 36.1965C79.1323 35.2855 75.0527 34.7162 73.4728 34.6479C71.9729 34.5568 66.3533 34.6479 65.5134 32.9854C65.5134 32.9854 64.7135 31.8012 65.5934 28.5673C66.5133 25.1512 73.0528 23.8303 75.8926 23.5571C75.8926 23.5571 83.692 23.1927 85.1519 25.0146C85.1519 25.0146 85.3519 25.4245 85.1119 26.0394M62.9936 46.0803C62.0537 46.8774 60.0538 46.5358 59.4739 45.6248C58.9139 44.8277 58.7139 41.685 58.8139 36.7431C58.9539 31.6873 59.0139 25.4928 60.0138 24.4908C61.0137 23.5115 61.6137 24.3769 62.0137 25.0373C62.4136 25.7206 62.9336 26.4721 63.0136 28.0435C63.1336 29.6376 63.4735 37.8362 63.4735 37.8362C63.4735 37.8362 63.9135 45.306 63.0136 46.0803M64.9934 19.435C62.2336 20.5054 60.3538 20.1638 58.7539 19.3667C58.054 20.8014 57.634 21.2341 57.114 21.3252C56.3141 21.4163 55.6142 19.9588 55.5142 19.5033C55.3542 19.1617 54.9742 18.5468 55.4342 17.1576C53.8743 15.5635 53.7543 13.4227 54.0343 11.988C54.3942 10.3027 57.034 3.97162 65.0334 3.22008C65.0334 3.22008 68.9531 2.90125 69.6331 5.26972H69.7531C69.7531 5.26972 73.5528 5.26972 73.4728 9.14126C73.4728 13.0128 69.2731 17.8408 64.9934 19.5033M68.5532 8.4125C66.0333 8.86798 62.1536 12.694 60.2938 15.8595C63.1536 16.4516 68.1532 16.2239 70.393 11.077C70.393 11.077 71.4529 7.84316 68.5532 8.4125ZM57.494 10.9176C56.6941 12.3979 56.6541 13.2861 57.034 13.8782C57.974 12.284 59.6338 9.77893 62.1337 7.82038C60.2138 8.04812 58.5939 8.95907 57.494 10.9176ZM125.629 45.9209C123.789 51.0678 122.229 56.283 121.329 64.0944C121.329 64.0944 121.129 65.6202 120.029 65.1192C118.929 64.6637 117.129 62.6141 116.729 59.7218C116.329 55.9413 117.809 49.5647 120.829 42.2315C119.949 40.6374 119.329 38.2689 119.829 34.9439C119.829 34.9439 120.629 28.795 126.029 23.2382C126.029 23.2382 126.669 22.6233 127.029 22.8283C127.469 23.056 127.289 25.0146 126.929 26.0166C126.609 26.9731 124.209 31.7101 124.209 31.7101C124.209 31.7101 122.709 34.9439 123.129 37.4718C125.969 32.5071 132.428 22.4411 136.428 25.6295C138.968 27.6791 138.968 34.2835 137.068 38.1095C135.568 41.1384 131.328 47.4012 125.669 45.9437M133.988 30.4575C132.508 32.2794 129.868 35.741 127.789 40.4324C129.988 40.1591 132.128 38.7699 132.788 38.0639C133.848 36.9936 136.288 34.1013 135.908 30.2753C135.908 30.2753 135.668 28.2712 133.988 30.4575ZM44.395 48.6082C37.3156 51.0678 30.6361 49.9291 26.9963 48.8359C26.8964 50.5212 26.7364 51.2272 26.4964 51.5005C26.2164 51.8648 23.8966 53.3679 22.6167 51.2272C22.0567 50.2024 21.7767 48.3577 21.6168 46.6724C13.4174 42.4365 9.61768 36.1965 9.49769 35.9688C9.2977 35.741 7.43784 33.532 9.2977 30.7991C11.0376 28.3395 16.7971 25.8572 21.9567 24.8779C22.1567 19.8677 22.6367 15.9962 23.2566 14.2881C23.9966 12.2385 24.9365 14.0604 25.7764 15.4268C26.4564 16.4516 26.8764 20.847 26.9164 24.3541C30.2761 24.1719 32.3159 24.4452 36.0556 25.2651C40.9753 26.2216 44.255 29.0911 43.995 32.3249C43.7551 35.5133 41.1953 36.8342 40.1953 36.9252C39.1954 37.0163 37.5955 36.1737 37.5955 36.1737C36.4756 35.5816 37.4955 35.035 38.7954 34.3974C40.2353 33.6003 39.9154 32.8032 39.9154 32.8032C39.3954 30.9813 33.0159 29.7743 26.6764 29.7743C26.6764 33.7597 26.8164 40.3641 26.9164 44.2129C31.356 45.1694 34.6758 44.9644 34.6758 44.9644C34.6758 44.9644 50.8745 44.4406 51.3345 32.6666C51.8344 20.8697 35.1357 9.57396 22.8367 6.02126C10.5576 2.35468 3.59814 4.95089 2.99818 5.29249C2.33823 5.65688 2.93819 5.79352 2.93819 5.79352C2.93819 5.79352 3.59814 5.90739 4.79805 6.36286C5.99795 6.81834 5.03803 7.50155 5.03803 7.50155C2.93819 8.32141 0.598367 7.84316 0.138402 6.75002C-0.321562 5.67965 0.438379 4.70038 1.33831 3.26563C2.17825 1.78534 3.13817 1.83088 3.13817 1.83088C18.337 -4.20416 36.8956 6.61337 36.8956 6.61337C54.2543 16.5883 57.214 28.3168 56.8941 32.8715C56.6141 37.358 55.0942 44.9416 44.395 48.631M10.9976 32.3249C9.2777 33.2359 10.4776 34.6934 10.4776 34.6934C13.7174 38.6333 17.6771 41.1156 21.4768 42.6642C21.9167 35.8321 21.8767 33.3953 21.8767 29.9565C15.9972 30.412 12.5974 31.5051 10.9976 32.3249Z" fill="white"/>
</svg>
