<svg width="139" height="66" viewBox="0 0 139 66" fill="none" xmlns="http://www.w3.org/2000/svg">
<path d="M119.629 28.6072C117.289 29.2221 111.11 29.5637 111.11 29.5637L110.35 32.3421C110.35 32.3421 113.41 32.046 115.65 32.2965C115.65 32.2965 116.369 32.2282 116.449 33.2075C116.489 34.2095 116.389 35.2571 116.389 35.2571C116.389 35.2571 116.329 35.872 115.59 36.0314C114.73 36.1909 108.93 36.4869 108.93 36.4869L107.99 40.0852C107.99 40.0852 107.65 40.905 108.43 40.6773C109.15 40.4495 115.23 39.1287 116.03 39.3109C116.869 39.5386 117.829 40.8595 117.549 42.0437C117.229 43.4785 111.15 47.8966 107.47 47.6005C107.47 47.6005 105.53 47.7371 103.91 44.7538C102.351 41.9071 104.45 36.5552 104.45 36.5552C104.45 36.5552 103.51 34.0501 104.21 33.1392C104.21 33.1392 104.61 32.752 105.81 32.6381L107.31 29.131C107.31 29.131 105.61 29.2449 104.61 27.8329C103.69 26.4665 103.61 25.8743 104.33 25.51C105.09 25.0545 112.13 23.6197 116.969 23.8019C116.969 23.8019 118.669 23.5742 120.169 26.9219C120.169 26.9219 120.849 28.2884 119.649 28.6072M101.391 42.0893C100.791 43.7517 99.1308 45.5053 97.131 44.435C95.0911 43.3418 91.8714 35.872 91.8714 35.872C91.8714 35.872 90.6715 33.0936 90.4315 33.1847C90.4315 33.1847 90.1715 32.6381 90.0315 35.6898C89.8315 38.7187 90.0715 44.6171 88.9716 45.5509C87.9717 46.4618 86.7718 46.0747 86.0918 45.0043C85.5319 43.9339 85.2919 41.3605 85.6119 36.8741C85.9718 32.3876 86.8718 27.6051 88.0117 26.1248C89.2116 24.6218 90.1715 25.7149 90.5315 26.1248C90.5315 26.1248 92.0714 27.719 94.6712 32.4332L95.1111 33.2986C95.1111 33.2986 97.4709 37.785 97.7109 37.7622C97.7109 37.7622 97.9109 37.99 98.0709 37.8078C98.3109 37.7395 98.2309 36.2819 98.2309 36.2819C98.2309 36.2819 97.7909 31.4311 95.5911 23.2326C95.5911 23.2326 95.2711 22.185 95.4911 21.1829C95.6911 20.272 96.551 20.7275 96.551 20.7275C96.551 20.7275 99.8708 22.5494 101.491 28.6983C103.091 34.8472 102.011 40.4268 101.411 42.0893M85.1119 26.307C84.7919 26.9447 84.6519 27.8329 83.272 28.0834C83.272 28.0834 69.8731 29.1538 69.2131 30.2241C69.2131 30.2241 68.7731 30.8618 69.4931 31.0212C70.253 31.2034 73.2928 31.6589 74.7327 31.75C76.2926 31.75 81.5322 31.7955 83.452 34.4828C83.452 34.4828 84.5519 35.7581 84.5119 38.6504C84.4719 41.611 84.012 42.6586 82.9921 43.729C81.9321 44.731 72.8528 49.3769 66.9933 42.2714C66.9933 42.2714 64.3135 38.8554 67.9332 36.2592C67.9332 36.2592 70.533 34.4373 77.1925 36.5552C77.1925 36.5552 79.1923 37.3751 79.1123 38.2177C78.9924 39.1287 77.4525 40.0396 75.2126 39.9941C73.0528 39.9257 71.4529 38.7415 71.7729 38.9465C72.0729 39.0603 69.4331 37.489 68.6132 38.5593C67.8132 39.5614 68.0132 40.1535 68.8131 40.7684C70.813 42.0893 78.6724 41.611 81.0122 38.6276C81.0122 38.6276 81.9521 37.4206 80.5322 36.4414C79.1323 35.5304 75.0527 34.9611 73.4728 34.8927C71.9729 34.8017 66.3533 34.8927 65.5134 33.2303C65.5134 33.2303 64.7135 32.046 65.5934 28.8122C66.5133 25.3961 73.0528 24.0752 75.8926 23.8019C75.8926 23.8019 83.692 23.4375 85.1519 25.2594C85.1519 25.2594 85.3519 25.6694 85.1119 26.2843M62.9936 46.3252C62.0537 47.1223 60.0538 46.7806 59.4739 45.8697C58.9139 45.0726 58.7139 41.9298 58.8139 36.9879C58.9539 31.9322 59.0139 25.7377 60.0138 24.7356C61.0137 23.7564 61.6137 24.6218 62.0137 25.2822C62.4136 25.9654 62.9336 26.717 63.0136 28.2884C63.1336 29.8825 63.4735 38.0811 63.4735 38.0811C63.4735 38.0811 63.9135 45.5509 63.0136 46.3252M64.9934 19.6799C62.2336 20.7502 60.3538 20.4086 58.7539 19.6116C58.054 21.0463 57.634 21.479 57.114 21.5701C56.3141 21.6612 55.6142 20.2037 55.5142 19.7482C55.3542 19.4066 54.9742 18.7917 55.4342 17.4025C53.8743 15.8083 53.7543 13.6676 54.0343 12.2329C54.3942 10.5476 57.034 4.21649 65.0334 3.46496C65.0334 3.46496 68.9531 3.14612 69.6331 5.51459H69.7531C69.7531 5.51459 73.5528 5.51459 73.4728 9.38613C73.4728 13.2577 69.2731 18.0857 64.9934 19.7482M68.5532 8.65737C66.0333 9.11285 62.1536 12.9388 60.2938 16.1044C63.1536 16.6965 68.1532 16.4688 70.393 11.3219C70.393 11.3219 71.4529 8.08803 68.5532 8.65737ZM57.494 11.1625C56.6941 12.6428 56.6541 13.531 57.034 14.1231C57.974 12.5289 59.6338 10.0238 62.1337 8.06526C60.2138 8.29299 58.5939 9.20394 57.494 11.1625ZM125.629 46.1658C123.789 51.3126 122.229 56.5278 121.329 64.3392C121.329 64.3392 121.129 65.8651 120.029 65.364C118.929 64.9086 117.129 62.8589 116.729 59.9667C116.329 56.1862 117.809 49.8096 120.829 42.4764C119.949 40.8822 119.329 38.5138 119.829 35.1888C119.829 35.1888 120.629 29.0399 126.029 23.4831C126.029 23.4831 126.669 22.8682 127.029 23.0732C127.469 23.3009 127.289 25.2594 126.929 26.2615C126.609 27.218 124.209 31.9549 124.209 31.9549C124.209 31.9549 122.709 35.1888 123.129 37.7167C125.969 32.752 132.428 22.686 136.428 25.8743C138.968 27.924 138.968 34.5284 137.068 38.3544C135.568 41.3833 131.328 47.6461 125.669 46.1885M133.988 30.7024C132.508 32.5243 129.868 35.9859 127.789 40.6773C129.988 40.404 132.128 39.0148 132.788 38.3088C133.848 37.2384 136.288 34.3462 135.908 30.5202C135.908 30.5202 135.668 28.5161 133.988 30.7024ZM44.395 48.8531C37.3156 51.3126 30.6361 50.1739 26.9963 49.0808C26.8964 50.7661 26.7364 51.472 26.4964 51.7453C26.2164 52.1097 23.8966 53.6128 22.6167 51.472C22.0567 50.4472 21.7767 48.6026 21.6168 46.9173C13.4174 42.6814 9.61768 36.4414 9.49769 36.2136C9.2977 35.9859 7.43784 33.7768 9.2977 31.044C11.0376 28.5844 16.7971 26.1021 21.9567 25.1228C22.1567 20.1126 22.6367 16.241 23.2566 14.533C23.9966 12.4834 24.9365 14.3053 25.7764 15.6717C26.4564 16.6965 26.8764 21.0918 26.9164 24.599C30.2761 24.4168 32.3159 24.6901 36.0556 25.51C40.9753 26.4665 44.255 29.3359 43.995 32.5698C43.7551 35.7581 41.1953 37.079 40.1953 37.1701C39.1954 37.2612 37.5955 36.4186 37.5955 36.4186C36.4756 35.8265 37.4955 35.2799 38.7954 34.6422C40.2353 33.8452 39.9154 33.0481 39.9154 33.0481C39.3954 31.2262 33.0159 30.0192 26.6764 30.0192C26.6764 34.0046 26.8164 40.609 26.9164 44.4577C31.356 45.4142 34.6758 45.2093 34.6758 45.2093C34.6758 45.2093 50.8745 44.6855 51.3345 32.9114C51.8344 21.1146 35.1357 9.81884 22.8367 6.26613C10.5576 2.59955 3.59814 5.19576 2.99818 5.53737C2.33823 5.90175 2.93819 6.03839 2.93819 6.03839C2.93819 6.03839 3.59814 6.15226 4.79805 6.60774C5.99795 7.06321 5.03803 7.74642 5.03803 7.74642C2.93819 8.56628 0.598367 8.08803 0.138402 6.99489C-0.321562 5.92452 0.438379 4.94525 1.33831 3.5105C2.17825 2.03021 3.13817 2.07576 3.13817 2.07576C18.337 -3.95929 36.8956 6.85825 36.8956 6.85825C54.2543 16.8332 57.214 28.5616 56.8941 33.1164C56.6141 37.6028 55.0942 45.1865 44.395 48.8758M10.9976 32.5698C9.2777 33.4808 10.4776 34.9383 10.4776 34.9383C13.7174 38.8782 17.6771 41.3605 21.4768 42.9091C21.9167 36.077 21.8767 33.6402 21.8767 30.2014C15.9972 30.6568 12.5974 31.75 10.9976 32.5698Z" fill="#13173F"/>
</svg>
